<svg id="Layer_1" data-name="Layer 1" xmlns="http://www.w3.org/2000/svg" viewBox="0 0 197.49 119.65"><title>quote</title><path d="M19.36,84a1.5,1.5,0,0,1-.54-2.9c9.26-3.58,16-17.54,18.29-30.43A18.79,18.79,0,0,1,30.25,52a18,18,0,1,1,0-36,17,17,0,0,1,12.28,5,1.5,1.5,0,0,1,.79.47C49.74,28.76,51.46,39.89,48,52c-4.32,15.25-15.67,28.09-28.24,32A1.5,1.5,0,0,1,19.36,84ZM39,46.57a1.5,1.5,0,0,1,1.49,1.7c-1.11,8.44-4.17,18-8.94,25.25A48.79,48.79,0,0,0,45.15,51.14c3.06-10.82,1.71-20.71-3.7-27.26a1.5,1.5,0,0,1-.74-.45A13.9,13.9,0,0,0,30.25,19a15,15,0,1,0,0,30,16.77,16.77,0,0,0,8-2.26A1.5,1.5,0,0,1,39,46.57Z" transform="translate(-12.24 -16.01)" style="fill:#e0ac5f"/><path d="M57.36,84a1.5,1.5,0,0,1-.54-2.9c9.26-3.58,16-17.54,18.29-30.43A18.8,18.8,0,0,1,68.25,52a18,18,0,1,1,0-36,17,17,0,0,1,12.28,5,1.5,1.5,0,0,1,.79.47C87.74,28.76,89.46,39.89,86,52c-4.32,15.25-15.67,28.09-28.24,32A1.51,1.51,0,0,1,57.36,84ZM77,46.57a1.5,1.5,0,0,1,1.49,1.7c-1.11,8.44-4.17,18-8.94,25.25A48.79,48.79,0,0,0,83.15,51.14c3.07-10.82,1.71-20.71-3.7-27.26a1.5,1.5,0,0,1-.74-.45A13.9,13.9,0,0,0,68.25,19a15,15,0,1,0,0,30,16.78,16.78,0,0,0,8-2.26A1.5,1.5,0,0,1,77,46.57Z" transform="translate(-12.24 -16.01)" style="fill:#e0ac5f"/><text transform="translate(166.09 90.65)" style="font-size:100px;fill:#231f20;font-family:Flatline-Regular, Flatline">”</text><text transform="translate(109.76 83.99)" style="font-size:100px;fill:#231f20;font-family:AbhayaLibre-ExtraBold, Abhaya Libre ExtraBold">”</text></svg>