<svg width="75" height="77" viewBox="0 0 118 114" fill="none" xmlns="http://www.w3.org/2000/svg">
              <path d="M107.073 96.1472C105.866 96.1472 104.888 97.1247 104.888 98.3324V109.258H4.37033V43.7033H104.888V58.9994C104.888 60.2071 105.866 61.1846 107.073 61.1846C108.28 61.1846 109.258 60.2071 109.258 58.9994V15.2961C109.258 14.0894 108.28 13.111 107.073 13.111H85.2214V2.18516C85.2214 0.978454 84.2429 0 83.0362 0H69.9252C68.7185 0 67.7401 0.978454 67.7401 2.18516V13.111H41.5181V2.18516C41.5181 0.978454 40.5397 0 39.333 0H26.222C25.0153 0 24.0368 0.978454 24.0368 2.18516V13.111H2.18516C0.978454 13.111 0 14.0894 0 15.2961V111.443C0 112.651 0.978454 113.629 2.18516 113.629H107.073C108.28 113.629 109.258 112.651 109.258 111.443V98.3324C109.258 97.1247 108.28 96.1472 107.073 96.1472ZM72.1104 4.37033H80.8511V13.111H72.1104V4.37033ZM28.4071 4.37033H37.1478V13.111H28.4071V4.37033ZM4.37033 17.4813H104.888V39.333H4.37033V17.4813Z" fill="white"/>
              <path d="M63.3696 26.2222H45.8883C44.6816 26.2222 43.7031 27.2006 43.7031 28.4073C43.7031 29.614 44.6816 30.5925 45.8883 30.5925H63.3696C64.5763 30.5925 65.5548 29.614 65.5548 28.4073C65.5548 27.2006 64.5763 26.2222 63.3696 26.2222Z" fill="white"/>
              <path d="M32.7778 26.2222H15.2965C14.0898 26.2222 13.1113 27.2006 13.1113 28.4073C13.1113 29.614 14.0898 30.5925 15.2965 30.5925H32.7778C33.9845 30.5925 34.963 29.614 34.963 28.4073C34.963 27.2006 33.9845 26.2222 32.7778 26.2222Z" fill="white"/>
              <path d="M93.9624 26.2222H76.4811C75.2744 26.2222 74.2959 27.2006 74.2959 28.4073C74.2959 29.614 75.2744 30.5925 76.4811 30.5925H93.9624C95.1691 30.5925 96.1475 29.614 96.1475 28.4073C96.1475 27.2006 95.1691 26.2222 93.9624 26.2222Z" fill="white"/>
              <path d="M32.7778 72.1104C33.9845 72.1104 34.963 71.1329 34.963 69.9253V52.444C34.963 51.2372 33.9845 50.2588 32.7778 50.2588H15.2965C14.0898 50.2588 13.1113 51.2372 13.1113 52.444V69.9253C13.1113 71.1329 14.0898 72.1104 15.2965 72.1104H32.7778ZM17.4817 54.6291H30.5926V67.7401H17.4817V54.6291Z" fill="white"/>
              <path d="M63.3696 72.1104C64.5763 72.1104 65.5548 71.1329 65.5548 69.9253V52.444C65.5548 51.2372 64.5763 50.2588 63.3696 50.2588H45.8883C44.6816 50.2588 43.7031 51.2372 43.7031 52.444V69.9253C43.7031 71.1329 44.6816 72.1104 45.8883 72.1104H63.3696ZM48.0735 54.6291H61.1844V67.7401H48.0735V54.6291Z" fill="white"/>
              <path d="M10.9258 87.4064C10.9258 88.614 11.9042 89.5915 13.1109 89.5915H56.8142C58.0209 89.5915 58.9994 88.614 58.9994 87.4064C58.9994 86.1987 58.0209 85.2212 56.8142 85.2212H13.1109C11.9042 85.2212 10.9258 86.1987 10.9258 87.4064Z" fill="white"/>
              <path d="M13.1109 102.702H69.9252C71.1319 102.702 72.1104 101.725 72.1104 100.517C72.1104 99.3095 71.1319 98.332 69.9252 98.332H13.1109C11.9042 98.332 10.9258 99.3095 10.9258 100.517C10.9258 101.725 11.9042 102.702 13.1109 102.702Z" fill="white"/>
              <path d="M117.36 83.4359L105.303 71.3785L108.863 67.8178C109.423 67.2569 109.634 66.4345 109.414 65.6736C109.194 64.9098 108.579 64.3274 107.806 64.1479L96.1485 61.4603V52.4444C96.1485 51.2377 95.1701 50.2593 93.9634 50.2593H76.482C75.2753 50.2593 74.2969 51.2377 74.2969 52.4444V69.9258C74.2969 71.1334 75.2753 72.1109 76.482 72.1109H85.4979L88.1845 83.7685C88.364 84.543 88.9474 85.1576 89.7093 85.3771C89.9093 85.4346 90.1122 85.4629 90.3141 85.4629C90.8838 85.4629 91.4408 85.2386 91.8554 84.8269L95.4161 81.2652L107.473 93.3216C107.884 93.7322 108.44 93.9625 109.02 93.9625C109.599 93.9625 110.155 93.7322 110.565 93.3225L117.36 86.526C118.214 85.6725 118.214 84.2892 117.36 83.4356L117.36 83.4359ZM84.4904 67.7407H78.6686V54.6297H91.7796V60.4515L85.7138 59.0555C84.9812 58.8945 84.2105 59.1092 83.6789 59.6398C83.1462 60.1715 82.9258 60.9412 83.0945 61.6757L84.4904 67.7407ZM91.5608 78.9542L88.1357 64.0981L102.992 67.5211L91.5608 78.9542ZM109.021 88.687L98.5181 78.1855L102.225 74.4785L112.727 84.98L109.021 88.687Z" fill="white"/>
              </svg>