<svg width="75" height="75" viewBox="0 0 117 117" fill="none" xmlns="http://www.w3.org/2000/svg">
<path d="M81.9273 61.7145L78.8393 61.3312L79.034 61.95H27.066L32.5709 44.4531L32.6134 44.3182L32.6364 44.1787C32.6771 43.9324 33.0011 43.6545 33.2583 43.6545H54.7401H57.5203L56.6363 41.0186C55.7487 38.3722 55.2117 35.5637 55.0812 32.647L54.9957 30.7364H53.0832H35.2136C28.1662 30.7364 21.1941 36.1597 19.4423 42.9837L14.5152 57.4909H8.45909C4.8931 57.4909 2 60.384 2 63.95V68.4091V70.1032L3.67104 70.3819L10.9182 71.5903V108.541C10.9182 112.11 13.8119 115 17.3773 115H24.0659H25.7326L26.0331 113.361L28.1851 101.623H77.9149L80.0669 113.361L80.3674 115H82.0341H88.7227C92.2909 115 95.1818 112.109 95.1818 108.541V71.5903L102.429 70.3819L104.1 70.1032V68.4091V63.95C104.1 61.9144 103.155 60.0979 101.689 58.9175L100.686 58.1096L99.5353 58.6889C95.3925 60.7746 90.7114 61.95 85.75 61.95C84.4546 61.95 83.1789 61.8699 81.9273 61.7145ZM79.9041 36.2989L81.3184 37.7132L82.7326 36.2989L96.2692 22.7623C96.8179 22.2136 97.6924 22.2115 98.2431 22.7622C98.7871 23.3063 98.7866 24.1925 98.243 24.7361L81.4775 41.5016L81.3184 41.3424L81.1592 41.5016L74.0058 34.3482C73.4486 33.791 73.4516 32.9131 73.9981 32.3666C74.5334 31.8313 75.4347 31.8295 75.9796 32.3744L79.9041 36.2989ZM24.0659 84.2455C21.4779 84.2455 19.3773 82.1462 19.3773 79.5568C19.3773 76.9675 21.4779 74.8682 24.0659 74.8682C26.6539 74.8682 28.7545 76.9675 28.7545 79.5568C28.7545 82.1462 26.6539 84.2455 24.0659 84.2455ZM64.4273 86.2455C64.4273 87.2786 63.2851 88.7045 61.0764 88.7045H45.0236C42.8169 88.7045 41.6727 87.278 41.6727 86.2455V83.7864H64.4273V86.2455ZM82.0341 84.2455C79.4461 84.2455 77.3455 82.1462 77.3455 79.5568C77.3455 76.9675 79.4461 74.8682 82.0341 74.8682C84.6221 74.8682 86.7227 76.9675 86.7227 79.5568C86.7227 82.1462 84.6221 84.2455 82.0341 84.2455ZM85.75 60.5C101.904 60.5 115 47.4043 115 31.25C115 15.0957 101.904 2 85.75 2C69.5957 2 56.5 15.0957 56.5 31.25C56.5 47.4043 69.5957 60.5 85.75 60.5Z" stroke="white" stroke-width="4"/>
</svg>
