<svg width="57" height="77" viewBox="0 0 85 116" fill="none" xmlns="http://www.w3.org/2000/svg">
<path d="M2.29554 115.25H82.9238C83.7873 115.25 84.4693 114.568 84.4693 113.705V10.483C84.4693 9.61954 83.7873 8.9375 82.9238 8.9375H58.9832C58.1197 8.9375 57.4377 9.61953 57.4377 10.483C57.4377 11.3466 58.1197 12.0286 58.9832 12.0286H81.3788V112.158H3.84053V12.0286H26.236C27.0996 12.0286 27.7816 11.3466 27.7816 10.483C27.7816 9.61953 27.0996 8.9375 26.236 8.9375H2.29554C1.43203 8.9375 0.75 9.61953 0.75 10.483V113.705C0.75 114.568 1.43203 115.25 2.29554 115.25Z" fill="white" stroke="white" stroke-width="0.5"/>
<path d="M10.2955 63.7688H31.0225C31.8893 63.7688 32.5681 63.0575 32.5681 62.2232V54.2955C32.5681 53.432 31.886 52.75 31.0225 52.75H10.2955C9.43203 52.75 8.75 53.432 8.75 54.2955V62.2232C8.75 63.0868 9.43203 63.7688 10.2955 63.7688ZM29.503 55.8403V60.6778H11.8672V55.8403H29.503Z" fill="white" stroke="white" stroke-width="0.5"/>
<path d="M10.2955 84.1272H31.0225C31.886 84.1272 32.5681 83.4451 32.5681 82.5816V74.6539C32.5681 73.7904 31.886 73.1084 31.0225 73.1084H10.2955C9.43203 73.1084 8.75 73.7904 8.75 74.6539V82.5816C8.75 83.4452 9.43203 84.1272 10.2955 84.1272ZM29.503 76.1987V81.0362H11.8672V76.1987H29.503Z" fill="white" stroke="white" stroke-width="0.5"/>
<path d="M31.0225 104.102H31.2725V104.082C32.0119 103.966 32.5681 103.34 32.5681 102.582V94.6539C32.5681 93.7904 31.886 93.1084 31.0225 93.1084H10.2955C9.43203 93.1084 8.75 93.7904 8.75 94.6539V102.556C8.75 103.42 9.43203 104.102 10.2955 104.102H31.0225ZM29.503 96.1995V101.011H11.8672V96.1995H29.503Z" fill="white" stroke="white" stroke-width="0.5"/>
<path d="M40.0895 59.8045H75.8701C76.7335 59.8045 77.4157 59.1233 77.4157 58.2589C77.4157 57.3954 76.7336 56.7134 75.8701 56.7134H40.0895C39.226 56.7134 38.5439 57.3954 38.5439 58.2589C38.5439 59.1224 39.226 59.8045 40.0895 59.8045Z" fill="white" stroke="white" stroke-width="0.5"/>
<path d="M40.0895 80.2737H75.8701C76.7336 80.2737 77.4157 79.5917 77.4157 78.7282C77.4157 77.8646 76.7336 77.1826 75.8701 77.1826H40.0895C39.226 77.1826 38.5439 77.8646 38.5439 78.7282C38.5439 79.5917 39.226 80.2737 40.0895 80.2737Z" fill="white" stroke="white" stroke-width="0.5"/>
<path d="M40.0895 100.715H75.8701C76.7336 100.715 77.4157 100.033 77.4157 99.1696C77.4157 98.3061 76.7336 97.624 75.8701 97.624H40.0895C39.226 97.624 38.5439 98.3061 38.5439 99.1696C38.5439 100.033 39.226 100.715 40.0895 100.715Z" fill="white" stroke="white" stroke-width="0.5"/>
<path d="M20.6211 22.7378C20.6211 34.8715 30.4752 44.7256 42.6089 44.7256C54.7426 44.7256 64.5967 34.8715 64.5967 22.7378C64.5967 10.6041 54.7426 0.75 42.6089 0.75C30.4752 0.75 20.6211 10.6041 20.6211 22.7378ZM23.7121 22.7388C23.7121 12.3317 32.1764 3.84204 42.6089 3.84204C53.0416 3.84204 61.5057 12.3311 61.5057 22.7388C61.5057 33.1457 53.0157 41.6356 42.6089 41.6356C32.202 41.6356 23.7121 33.1455 23.7121 22.7388Z" fill="white" stroke="white" stroke-width="0.5"/>
<path d="M41.2715 12.8667C41.2715 13.7302 41.9535 14.4122 42.817 14.4122C43.6805 14.4122 44.3626 13.7302 44.3626 12.8667V9.36879C44.3626 8.50528 43.6805 7.82324 42.817 7.82324C41.9535 7.82324 41.2715 8.50528 41.2715 9.36879V12.8667Z" fill="white" stroke="white" stroke-width="0.5"/>
<path d="M40.8545 36.1079C40.8545 36.9714 41.5365 37.6535 42.4 37.6535C43.2342 37.6535 43.9456 36.9747 43.9456 36.1079V32.61C43.9456 31.7465 43.2635 31.0645 42.4 31.0645C41.5365 31.0645 40.8545 31.7465 40.8545 32.61V36.1079Z" fill="white" stroke="white" stroke-width="0.5"/>
<path d="M41.768 34.1551L41.768 34.1555H41.7806H41.9973L41.9974 34.1557H42.1175C43.6836 34.1557 45.3213 33.648 46.6146 32.73C47.9091 31.8112 48.8717 30.4705 49.05 28.8054C49.3608 26.3521 48.1882 24.5475 46.7675 23.2998C45.3507 22.0556 43.6656 21.3431 42.8769 21.0538L42.8765 21.0537C40.9731 20.3593 40.0194 19.6874 39.5715 19.0835C39.1399 18.5016 39.1575 17.9539 39.3011 17.4151L39.3016 17.4129C39.6368 16.1088 40.2935 15.3113 41.032 14.8628C41.7753 14.4113 42.6215 14.3014 43.3489 14.4107L43.3491 14.4107C44.7976 14.6273 46.2151 15.7772 46.1421 17.9112C46.1114 18.7717 46.7603 19.4863 47.6265 19.5174C48.4871 19.5482 49.2018 18.8992 49.2329 18.033L49.2329 18.0324C49.3681 14.0206 46.5035 11.7808 43.7864 11.3772L43.7864 11.3772L43.785 11.377C40.9547 10.9726 37.4036 12.4594 36.3054 16.6655L36.3053 16.6656C35.8865 18.2746 36.1426 19.7152 37.0838 20.954C38.0155 22.1804 39.6011 23.1864 41.7985 23.9843C42.3481 24.1889 43.4903 24.6636 44.4465 25.4222C45.4056 26.1833 46.1282 27.1875 45.9634 28.4588L45.9613 28.4748V28.4909V28.531C45.8891 29.26 45.3664 29.9085 44.5956 30.3722C43.8242 30.8362 42.8438 31.0884 41.9497 31.0396L41.9474 31.0395C41.4072 31.0148 40.7069 30.8677 40.1474 30.3814C39.5965 29.9025 39.1423 29.0599 39.1549 27.5601H39.1549V27.558C39.1549 26.7238 38.4761 26.0124 37.6093 26.0124H37.5833C36.7463 26.0124 36.0386 26.7196 36.0378 27.5565C36.0114 29.8568 36.7649 31.4807 37.8802 32.5448C38.9906 33.6042 40.4375 34.0881 41.768 34.1551Z" fill="white" stroke="white" stroke-width="0.5"/>
</svg>
